/* XPM */
static char *f3bbe9dc2d054030e96adac811647f2b6ewVriDpWq1OKDKU[] = {
/* columns rows colors chars-per-pixel */
"64 64 114 2 ",
"   c None",
".  c #000000",
"X  c #060D05",
"o  c #090C04",
"O  c #0B0C0C",
"+  c #071207",
"@  c #0B1106",
"#  c #071008",
"$  c #09150A",
"%  c #0B1B0C",
"&  c #111205",
"*  c #111909",
"=  c #0D210E",
"-  c #1A240E",
";  c #19280E",
":  c #0F2410",
">  c #0F2910",
",  c #102511",
"<  c #132B14",
"1  c #1E2D10",
"2  c #133214",
"3  c #163817",
"4  c #173618",
"5  c #173E19",
"6  c #1B3E1D",
"7  c #232408",
"8  c #2D2E0C",
"9  c #36360C",
"0  c #222F12",
"q  c #273615",
"w  c #223813",
"e  c #2A3B16",
"r  c #2D3F18",
"t  c #1E441F",
"y  c #1B4A1E",
"u  c #2F4319",
"i  c #2D4A19",
"p  c #354A1C",
"a  c #384F1E",
"s  c #1F4720",
"d  c #1E5321",
"f  c #214F23",
"g  c #235325",
"h  c #225B25",
"j  c #265728",
"k  c #275A29",
"l  c #295D2B",
"z  c #3C5521",
"x  c #3B5820",
"c  c #246327",
"v  c #256529",
"b  c #2C662E",
"n  c #26682A",
"m  c #2B6A2E",
"M  c #3D6422",
"N  c #2A732E",
"B  c #2E6A30",
"V  c #306E32",
"C  c #2D7631",
"Z  c #2E7D32",
"A  c #327334",
"S  c #327C35",
"D  c #377E39",
"F  c #515717",
"G  c #415C23",
"H  c #446024",
"J  c #496627",
"K  c #4D6C29",
"L  c #52742C",
"P  c #587B2F",
"I  c #525356",
"U  c #5E5F62",
"Y  c #308134",
"T  c #3A853D",
"R  c #368B3A",
"E  c #3C8A3F",
"W  c #5D8231",
"Q  c #558B30",
"!  c #648C35",
"~  c #669037",
"^  c #689237",
"/  c #649B37",
"(  c #6A9539",
")  c #6E9A3B",
"_  c #6FA63C",
"`  c #76A63F",
"'  c #3E8E41",
"]  c #3D9441",
"[  c #419644",
"{  c #429946",
"}  c #459E48",
"|  c #47A44B",
" . c #48A64C",
".. c #4BAE4F",
"X. c #49A94D",
"o. c #4CAE50",
"O. c #4CAF50",
"+. c #7AAB41",
"@. c #7DAF42",
"#. c #81811E",
"$. c #83831E",
"%. c #8A891F",
"&. c #8A9426",
"*. c #949322",
"=. c #9E9D24",
"-. c #9AA62B",
";. c #CDDC39",
":. c #82B645",
">. c #83B846",
",. c #86BC47",
"<. c #88BE48",
"1. c #89C149",
"2. c #8BC34A",
"3. c #8BC34A",
/* pixels */
"                                                                                                                                ",
"                                                                                                                                ",
"                                                                                                                                ",
"                                                                                                                                ",
"                                                                                                                                ",
"                                                                                                                                ",
"                                                                                                                                ",
"                                  . . . . . . . . . . . . . . . . . . . . . . . . . . . . . . . . . . . . . . . . . . . .       ",
"                              . . . . . . . . . . . . . . . . . . . . . . . . . . . . . . . . . . . . . . . . . . . . . . . .   ",
"                            . . $ 2 2 2 2 2 2 2 2 2 = . X w w w w w X . ; w w w * . $ w w w w w w . . > 2 2 2 2 2 2 2 2 2 X . . ",
"                            . . N Z N d d h Z Z Z Z d . * Q Q Q Q Q o . M Q Q Q i . 1 Q Q Q Q Q Q o . v Z Z Z Z h d d C Y c . . ",
"                            . . Y R = . . . v R R R h . * / / / / / @ . L _ _ _ x . w / / / / / / o . N R R R g . . . 3 R m . . ",
"                            . . X.O.B , , < { O.O.O.A . - 2.2.2.3.3.* . ! 2.2.2.J . u 3.3.3.3.3.2.o . ' O.O.O.] < : , D ..] . . ",
"                            . . O.O.O.{ {  .O.O.O.O.A . - 2.2.2.3.3.* . ! 2.2.2.J . u 3.3.3.3.3.2.o . ' O.O.O.O.| { } O...{ . . ",
"                            . . O.O.6 . . . ' O.O.O.A . - 2.2.2.3.3.* . ! 2.2.2.J . u 3.3.3.3.3.3.X . ' o.O.o.A . . . k O.{ . . ",
"                            . . O.O.f . . $ ] O.O.O.A . - 2.2.2.3.3.* . ! 2.2.2.J . u 3.3.3.3.3.3.o . ' o.o.o.T X . . m O.{ . . ",
"                            . . O.O.O.O.O.O.O.O.O.{ < . . . . . . . . . . . . . . . . . . . . . . . . 6  .O.O.O.O.O.O.O.O.{ . . ",
"                            . . ' O.O.O.O.O.O.O.X.% . . . . . . . . . . . . . . . . . . . . . . . . . . < ..O.O.O.O.O.O.O.A . . ",
"                            . . . $ $ $ $ $ $ $ # . o ( +.+.+.+.+.+.+.+.+.+.+.+.+.+.+.+.+.+.+.+.+.+.! . . $ $ $ $ $ $ $ $ . . . ",
"                              . . . . . . . . . . . G 2.2.2.2.2.2.2.2.2.2.2.2.2.2.2.2.2.2.2.2.2.3.3.3.e . . . . . . . . . . .   ",
"                                    . . J ! ! ! ! ( 2.2.2.W p q q q q q q q q q q q q q q q q a ^ 3.2.,.~ ! ! ! ! z . .         ",
"                                    . . ! 3.3.3.2.2.2.2.H . . . . . . . . . . . . . . . . . . . . P 2.2.2.2.2.2.2.L . .         ",
"                                    . . ! 3.3.3.2.2.2.:.. . 2 y y y y y y y y y y y y y y y y > . @ 2.2.2.2.2.2.2.L . .         ",
"                                    . . ! 3.3.3.2.2.2.^ . X Z Z Z Z Z Z Z Z Z Z Z Z Z Z Z Z Z C . . @.2.2.2.W H G q . .         ",
"                                    . . ! 3.3.3.3.3.3.! . X R ] C f f f g S ] E ] ] E R ] ] ] R . . +.2.,.0 . . . . . .         ",
"                                    . . ! 3.3.3.3.3.3.! . $ O.O.X . . . . . v O.O.O.| A R O.O.O.. . +.2.K . o 6 t < . .         ",
"                                    . . ! 3.2.>.! W W G . $ O.O.. . 8 9 7 . . [ ..b X . . , | O.. . +.2.r . k O.O.B . .         ",
"                                    . . J ! W @ . . . . . $ O.O.. . %.=.=.7 . m [ . . - o . t O.. . +.2.e . b O.O.m . .         ",
"                                    . . . . . . X = = $ . $ O.O.. . %.=.=.9 . l B . 8 ;.&.. $ O.. . +.2.z . , T ' g . .         ",
". . . . . . . . . . . . . . . . . . . . # $ X . g O.O.D . $ O.O.. . %.=.=.9 . l A . & -.F . : O.. . +.2.` X . . . . . .         ",
". . . o o . O . O . O . O . O . . o . . D O.s . g O.O.D . $ O.O.. . #.*.#.& . A  .% . . . . V O.. . +.2.3.) q @ o . . .         ",
". . I U U U U U U U U U U U U U U U O . D O.s . g O.O.D . $ O.O.. . . . . . $ | O.{ 4 X % B O.O.. . +.2.3.3.3.3.3.L . .         ",
". . I U U U U U U U U U U U U U U U O . D O.s . g O.O.D . $ O.O.< . . . . < ] O.O.O.O.O.O.O.O.O.. . +.3.2.2.2.2.2.L . .         ",
". . . O . O . O . O . O . o o . o . . . D O.s . g O.O.D . $ O.O.O. .|  ...O.O.O.O.O.O.O.O.O.O.O.. . +.3.2.) q o o X . .         ",
". . . . . . . . . . . . . . . . . . . . X $ X . g O.O.D . $ O.O.O.O.O.O.O.O.O.O.O.O.O.O.O.O.O.O.. . +.3.` o . . . . . .         ",
"                                    . . . . . . O % : $ . $ O.O.O.O.O.O.O.O.O.O.O.O.O.O.O.O.O.O.. . +.3.z . , T ' g . .         ",
"                                    . . J ! W @ . . . . . $ O.O.O.O.O.O.O.O.O.O.O.O.O.O.O.O.O.O.. . +.2.e . b ..O.b . .         ",
"                                    . . ! 3.3.>.! P W G . $ O.O.O.O.D 6 f X.[ s s [ X.f 6 D O.O.. . +.2.r . k o.O.m . .         ",
"                                    . . ! 3.3.3.3.3.2.! . $ O.O.O.O.< . . T k . . k T . . < O.O.. . +.2.K . X 6 f , . .         ",
"                                    . . ! 3.3.3.3.3.3.! . $ O.O.O.O.[ l V O.| b b  .O.V k [ O.O.. . +.2.<.0 . . . . . .         ",
"                                    . . ! 2.2.2.2.2.2.~ . X O.O.O.O.O.O.O.O.O.O.O.O.O.O.O.O.O. .. . @.2.2.2.W H G q . .         ",
"                                    . . ! 2.2.2.2.2.2.:.. . t m b B m b b m B b m B B b b m B 4 . @ 2.2.2.3.3.2.3.L . .         ",
"                                    . . ! 2.2.2.2.2.2.2.H . . . . . . . . . . . . . . . . . . . . P 2.2.2.2.2.2.3.L . .         ",
"                                    . . J ! ! ! ! ^ 2.2.3.W p e q q q q q q q q q q q q q q q a ^ 2.2.,.~ ! ! ! ! z . .         ",
"                              . . . . . . . . . . . G 2.2.2.2.2.3.3.3.3.3.3.2.2.3.3.2.2.2.2.2.2.2.2.2.r . . . . . . . . . . .   ",
"                            . . . X + X X + + X X . @ ( +.+.+.+.+.+.+.+.+.+.+.+.+.+.+.+.+.+.+.+.+.+.! . . X + X X + X + X . . . ",
"                            . . c Z Z Z Z Z Z Z Z + . . . . . . . . . . . . . . . . . . . . . . . . . . = Y Z Z Z Z Z Z Z d . . ",
"                            . . Z Z Z Z Z Z Z Z Z n = . . . . . . . . . . . . . . . . . . . . . . . . < N Z Z Z Z Z Z Z Z m . . ",
"                            . . Z Z 3 . . X n Z Z Z d . - 2.2.2.2.2.* . ! 2.2.2.J . u 2.2.2.2.2.2.X . v Z Z Z h X . . y Z N . . ",
"                            . . Z Z > . . . c Z Z Z d . - 2.2.2.2.2.* . ! 2.2.2.J . u 2.2.2.2.2.2.o . v Z Z Z d . . . t Z n . . ",
"                            . . Z Z Y n N N Y Z Z Z d . - 2.2.2.2.2.* . ! 3.2.2.J . u 2.2.2.2.2.3.X . v Z Z Z Z N n N Y Y n . . ",
"                            . . Z Z y % $ = N Z Z Z d . - 2.2.2.2.2.* . ! 3.2.2.J . u 2.2.2.2.2.3.o . v Z Z Z n = $ % d Z m . . ",
"                            . . Z Z % . . . h Z Z Z d . - 2.2.2.2.2.* . ! 2.2.2.J . u 3.2.2.2.2.3.o . v Z Z Z y . . . 2 Z n . . ",
"                            . . N Z N d d h Z Z Z Z d . - 2.2.2.2.2.* . ! 2.2.2.J . u 3.2.2.2.2.2.o . c Z Z Z Z h d d Z Z c . . ",
"                            . . $ 2 2 2 2 2 2 2 2 2 = . o a a a a a o . e a a a 1 . * a a a a a a . . < 2 2 2 2 2 2 2 2 2 + . . ",
"                              . . . . . . . . . . . . . . . . . . . . . . . . . . . . . . . . . . . . . . . . . . . . . . . .   ",
"                                  . . . . . . . . . . . . . . . . . . . . . . . . . . . . . . . . . . . . . . . . . . . .       ",
"                                                                                                                                ",
"                                                                                                                                ",
"                                                                                                                                ",
"                                                                                                                                ",
"                                                                                                                                ",
"                                                                                                                                ",
"                                                                                                                                "
};
