/* XPM */
static char *result[] = {
/* columns rows colors chars-per-pixel */
"64 64 145 2 ",
"   c black",
".  c #010000",
"X  c #010100",
"o  c #010101",
"O  c #020101",
"+  c #030101",
"@  c #020200",
"#  c gray1",
"$  c #040201",
"%  c #050201",
"&  c #060202",
"*  c #050401",
"=  c #080303",
"-  c #090702",
";  c #0E0504",
":  c #0A0802",
">  c #0F0C03",
",  c #0F0D03",
"<  c #0B0B0B",
"1  c #120705",
"2  c #120706",
"3  c #140806",
"4  c #150807",
"5  c #170907",
"6  c #180907",
"7  c #1A1605",
"8  c #1D1805",
"9  c #10100F",
"0  c #131313",
"q  c gray8",
"w  c gray9",
"e  c #1C1C1B",
"r  c #270E0C",
"t  c #231D06",
"y  c #30120F",
"u  c #31120F",
"i  c #361411",
"p  c #3C1613",
"a  c #3F1713",
"s  c #262007",
"d  c #272007",
"f  c #2E2708",
"g  c #302809",
"h  c #322A09",
"j  c #332B09",
"k  c #3F350B",
"l  c #272727",
"z  c #323231",
"x  c #3F3F3E",
"c  c #421915",
"v  c #431915",
"b  c #461A16",
"n  c #491B17",
"m  c #4E1D18",
"M  c #56201B",
"N  c #63251F",
"B  c #64251F",
"V  c #64261F",
"C  c #65261F",
"Z  c #712A23",
"A  c #722B23",
"S  c #7D2F27",
"D  c #4D400E",
"F  c #584A10",
"G  c #605011",
"H  c #6A5813",
"J  c #6F5D14",
"K  c #786415",
"L  c #40403F",
"P  c #434342",
"I  c #464645",
"U  c #494949",
"Y  c #4A4A49",
"T  c #4E4E4D",
"R  c #545453",
"E  c #686869",
"W  c #6B6B6A",
"Q  c #6E6E6D",
"!  c #7D7D7B",
"~  c #7F7F7E",
"^  c #87322A",
"/  c #8D352C",
"(  c #8E352C",
")  c #94382E",
"_  c #9C3A30",
"`  c #A23D32",
"'  c #A43D33",
"]  c #856F18",
"[  c #897218",
"{  c #957C1B",
"}  c #967D1B",
"|  c #AC4136",
" . c #B64438",
".. c #BC463A",
"X. c #C1483C",
"o. c #C2483C",
"O. c #C64A3E",
"+. c #CA4C3F",
"@. c #D04E41",
"#. c #D14E41",
"$. c #D34F42",
"%. c #D65042",
"&. c #D85143",
"*. c #D95143",
"=. c #DB5244",
"-. c #E05446",
";. c #E15446",
":. c #E25546",
">. c #E55647",
",. c #E85748",
"<. c #EA5849",
"1. c #EB5849",
"2. c #A68A1E",
"3. c #A88C1E",
"4. c #AC901F",
"5. c #AF921F",
"6. c #B69820",
"7. c #B79921",
"8. c #B99A21",
"9. c #C4A323",
"0. c #CAA924",
"q. c #D4B126",
"w. c #DEB928",
"e. c #E5BF29",
"r. c #EAC32A",
"t. c #F0C82B",
"y. c #F3CB2B",
"u. c #F4CC2B",
"i. c #F6CD2C",
"p. c #F7CE2C",
"a. c #868685",
"s. c #878785",
"d. c #8C8C8A",
"f. c #8E8E8C",
"g. c #959593",
"h. c #9A9A98",
"j. c #ABABA9",
"k. c #B2B2B0",
"l. c #B5B5B3",
"z. c #B8B8B6",
"x. c #BCBCBA",
"c. c #BFBFBD",
"v. c #C1C1BF",
"b. c #C9C9C7",
"n. c None",
/* pixels */
"n.n.n.n.n.n.n.n.n.n.n.n.n.n.n.n.n.n.n.n.n.n.n.n.n.n.n.n.n.n.n.n.n.n.n.n.n.n.n.n.n.n.n.n.n.n.n.n.n.n.n.n.n.n.n.n.n.n.n.n.n.n.n.n.",
"n.n.n.n.n.n.n.n.n.n.n.n.n.n.n.n.n.n.n.n.n.n.n.n.n.n.n.n.n.n.n.n.n.n.n.n.n.n.n.n.n.n.n.n.n.n.n.n.n.n.n.n.n.n.n.n.n.n.n.n.n.n.n.n.",
"n.n.n.n.n.n.n.n.n.n.n.n.n.n.n.n.n.n.n.n.n.n.n.n.n.n.n.n.n.n.n.n.n.n.n.n.n.n.n.n.n.n.n.n.n.n.n.n.n.n.n.n.n.n.n.n.n.n.n.n.n.n.n.n.",
"n.n.n.n.n.n.n.n.n.n.n.n.n.n.n.n.n.n.n.n.n.n.n.n.n.n.n.n.n.n.n.n.n.n.n.n.n.n.n.n.n.n.n.n.n.n.n.n.n.n.n.n.n.n.n.n.n.n.n.n.n.n.n.n.",
"n.n.n.n.n.n.n.n.n.n.n.n.n.n.n.n.n.n.n.n.n.n.n.n.n.n.n.n.n.n.n.n.n.n.n.n.n.n.n.n.n.n.n.n.n.n.n.n.n.n.n.n.n.n.n.n.n.n.n.n.n.n.n.n.",
"n.n.n.n.n.n.n.n.n.n.n.n.n.n.n.n.n.n.n.n.n.n.n.n.n.n.n.n.n.n.n.n.n.n.n.n.n.n.n.n.n.n.n.n.n.n.n.n.n.n.n.n.n.n.n.n.n.n.n.n.n.n.n.n.",
"n.n.n.n.n.n.n.n.n.n.n.n.n.n.n.n.n.n.n.n.n.n.n.n.n.n.n.n.n.n.n.n.n.n.n.n.n.n.n.n.n.n.n.n.n.n.n.n.n.n.n.n.n.n.n.n.n.n.n.n.n.n.n.n.",
"n.n.n.n.n.n.n.n.n.n.n.n.n.n.n.n.n.n.n.n.n.n.n.n.n.n.n.n.n.n.n.n.n.n.n.n.n.n.n.n.n.n.n.n.n.n.n.n.n.n.n.n.n.n.n.n.n.n.n.n.n.n.n.n.",
"n.n.n.n.n.n.n.n.n.n.n.n.n.n.n.n.n.n.n.n.n.n.n.n.n.n.n.n.n.n.n.n.n.n.n.n.n.n.n.n.n.n.n.n.n.n.n.n.n.n.n.n.n.n.n.n.n.n.n.n.n.n.n.n.",
"n.n.n.      n.n.n.n.n.n.n.n.n.n.n.n.n.n.n.n.n.n.n.n.n.n.n.n.n.n.n.n.n.n.n.n.n.n.n.n.n.n.n.n.n.n.n.n.n.n.n.n.n.n.n.n.n.n.n.n.n.n.",
"n.n.n.                n.n.n.n.n.n.n.n.n.n.n.n.n.n.n.n.n.n.n.n.n.n.n.n.n.n.n.n.n.n.n.n.n.n.n.n.n.n.n.n.n.n.n.n.n.n.n.n.n.n.n.n.n.",
"n.n.n.  P ~ R l #         n.n.n.n.n.n.n.n.n.n.n.n.n.n.n.n.n.n.n.n.n.n.n.n.n.n.n.n.n.n.n.n.n.n.n.n.n.n.n.n.n.n.n.n.n.n.n.n.n.n.n.",
"n.n.    ! b.b.b.v.h.Q z     n.n.n.n.n.n.n.n.n.n.n.n.n.n.n.n.n.n.n.n.n.n.n.n.n.n.n.n.n.n.n.n.n.n.n.n.n.n.n.n.n.n.n.n.n.n.n.n.n.n.",
"n.n.    U a.k.b.b.b.b.v.e   n.n.n.n.n.n.n.n.n.n.n.n.n.n.n.n.n.n.n.n.n.n.n.n.n.n.n.n.n.n.n.n.n.n.n.n.n.n.n.n.n.n.n.n.n.n.n.n.n.n.",
"n.n.          q x W j.b.g.o   n.n.n.n.n.n.n.n.n.n.n.n.n.n.n.n.n.n.n.n.n.n.n.n.n.n.n.n.n.n.n.n.n.n.n.n.n.n.n.n.n.n.n.n.n.n.n.n.n.",
"n.n.n.n.n.          9 z.b.T     n.n.n.n.n.n.n.n.n.n.n.n.n.n.n.n.n.n.n.n.n.n.n.n.n.n.n.n.n.n.n.n.n.n.n.n.n.n.n.n.n.n.n.n.n.n.n.n.",
"n.n.n.n.n.n.n.n.n.    I b.x.0   n.n.n.n.n.n.n.n.n.n.n.n.n.n.n.n.n.n.n.n.n.n.n.n.n.n.n.n.n.n.n.n.n.n.n.n.n.n.n.n.n.n.n.n.n.n.n.n.",
"n.n.n.n.n.n.n.n.n.n.    f.b.s.    n.n.n.n.n.n.n.n.n.n.n.n.n.n.n.n.n.n.n.n.n.n.n.n.n.n.n.n.n.n.n.n.n.n.n.n.n.n.n.n.n.n.n.n.n.n.n.",
"n.n.n.n.n.n.n.n.n.n.n.  w c.b.L           n.n.n.n.n.n.n.n.n.n.n.n.n.n.n.n.n.n.n.n.n.n.n.n.n.n.n.                    n.n.n.n.n.n.",
"n.n.n.n.n.n.n.n.n.n.n.    R b.l.<           n.n.n.n.n.n.n.n.n.n.n.n.n.n.n.n.n.n.n.n.n.n.n.n.n.n.                    n.n.n.n.n.n.",
"n.n.n.n.n.n.n.n.n.n.n.n.  o d.Y     g 9.f         n.n.n.n.n.n.n.n.n.n.n.n.n.n.n.n.n.n.n.n.n.n.n.n.n.    E E     n.n.n.n.n.n.n.n.",
"n.n.n.n.n.n.n.n.n.n.n.n.        - ] y.p.3.        n.n.n.n.n.n.n.n.n.n.n.n.n.n.n.n.n.n.n.n.n.n.n.n.n.    E E     n.n.n.n.n.n.n.n.",
"n.n.n.n.n.n.n.n.n.n.n.n.      k q.p.u.[ :       n.n.n.n.                                                              n.n.n.n.n.",
"n.n.n.n.n.n.n.n.n.n.n.    , } i.p.0.j     F t   n.n.                                                                    n.n.n.n.",
"n.n.n.n.n.n.n.n.n.n.n.    2.p.t.K *   8 5.p.7.X       $ A >.1.1.1.1.1.1.1.1.1.1.1.1.1.1.1.1.1.1.1.1.1.1.1.1.1.1.1.#.v     n.n.n.",
"n.n.n.n.n.n.n.n.n.n.n.    s 6.d   @ H r.p.p.e.t     y X.1.1.1.1.1.1.1.1.1.1.1.1.1.1.1.1.1.1.1.1.1.1.1.1.1.1.1.1.1.1.@.    n.n.n.",
"n.n.n.n.n.n.n.n.n.n.n.n.        t 8.p.p.p.4.7   = S ,.1.1.:.N 5                             5 N :.1.1.1.1.1.1.1.1.1.1.    n.n.n.",
"n.n.n.n.n.n.n.n.n.n.n.n.      G t.p.p.w.D     p +.1.1.1.1.B                                     B 1.1.1.1.1.1.1.1.1.1.    n.n.n.",
"n.n.n.n.n.n.n.n.n.n.n.        h u.i.{ >   ; ( <.1.1.1.1.1.3   n.n.n.n.n.n.n.n.n.n.n.n.n.n.n.n.  3 1.1.1.1.1.1.1.1.1.1.    n.n.n.",
"n.n.n.n.n.n.n.n.n.n.n.n.n.n.    J k     n $.1.1.1.1.1.1.1.3   n.n.n.n.n.n.n.n.n.n.n.n.n.n.n.n.  3 1.1.1.1.1.1.1.1.1.1.    n.n.n.",
"n.n.n.n.n.n.n.n.n.n.n.n.n.n.n.      4 _ 1.1.1.1.1.1.1.1.1.B                                     B 1.1.1.1.1.1.1.1.1.1.    n.n.n.",
"n.n.n.n.n.n.n.n.n.n.n.n.n.n.      m *.1.1.1.1.1.1.1.1.1.1.:.N 5                             5 N :.1.1.1.1.1.1.1.1.1.1.    n.n.n.",
"n.n.n.n.n.n.n.n.n.n.n.n.n.    6 ` 1.1.1.1.1.1.1.1.1.1.1.1.1.1.1.1.1.1.1.1.1.1.1.1.1.1.1.1.1.1.1.1.1.1.1.1.1.1.1.1.1.1.    n.n.n.",
"n.n.n.n.n.n.n.n.n.n.n.    O V -.1.1.1.1.1.1.1.1.1.1.1.1.1.1.1.1.1.1.1.1.1.1.1.1.1.1.1.1.1.1.1.1.1.1.1.1.1.1.1.1.1.1.1.    n.n.n.",
"n.n.n.n.n.n.n.n.n.n.n.     .1.1.1.1.1.1.1.1.1.1.1.1.1.1.1.1.1.1.1.1.1.1.1.1.1.1.1.1.1.1.1.1.1.1.1.1.1.1.1.1.1.1.1.1.1.    n.n.n.",
"n.n.n.n.n.n.n.n.n.n.n.    1.1.1.1.1.1.1.1.1.1.1.1.1.1.1.1.1.1.1.1.1.1.1.1.1.1.1.1.1.1.1.1.1.1.1.1.1.1.1.1.1.1.1.1.1.1.    n.n.n.",
"n.n.n.n.n.n.n.n.n.n.n.    1.1.1.1.1.b Z O.1.1.1.1.1.1.1.1.1.1.1.1.1.1.1.1.1.1.1.1.1.1.1.1.1.1.1.1.1.1.O.Z b 1.1.1.1.1.    n.n.n.",
"n.n.n.n.n.n.n.n.n.n.n.    1.1.1.1.o.      u ^ &.1.1.1.1.1.1.1.1.1.1.1.1.1.1.1.1.1.1.1.1.1.1.1.1.&.^ u       o.1.1.1.1.    n.n.n.",
"n.n.n.n.n.n.n.n.n.n.n.    1.1.1.1.1...C 1     + a ) ;.1.1.1.1.1.1.1.1.1.1.1.1.1.1.1.1.1.1.>.' m %     ; M | <.1.1.1.1.    n.n.n.",
"n.n.n.n.n.n.n.n.n.n.n.    1.1.1.1.1.1.1.>.' m &     ; M | <.1.1.1.1.1.1.1.1.1.1.1.1.1...C 1     + a ) ;.1.1.1.1.1.1.1.    n.n.n.",
"n.n.n.n.n.n.n.n.n.n.n.    1.1.1.1.1.1.1.1.1.1.=./ i .                                       r S %.1.1.1.1.1.1.1.1.1.1.    n.n.n.",
"n.n.n.n.n.n.n.n.n.n.n.    1.1.1.1.1.1.1.1.1.1.1.1.1.O.A                                 A O.1.1.1.1.1.1.1.1.1.1.1.1.1.    n.n.n.",
"n.n.n.n.n.n.n.n.n.n.n.    1.1.1.1.1.1.1.1.1.1.1.1.1.1.1.    1.1.1.1.1.1.1.1.1.1.1.1.    1.1.1.1.1.1.1.1.1.1.1.1.1.1.1.    n.n.n.",
"n.n.n.n.n.n.n.n.n.n.n.    1.1.1.1.1.1.1.1.1.1.1.1.1.1.1.    1.1.1.1.1.1.1.1.1.1.1.1.    1.1.1.1.1.1.1.1.1.1.1.1.1.1.1.    n.n.n.",
"n.n.n.n.n.n.n.n.n.n.n.    1.1.1.1.1.1.1.1.1.1.1.1.1.O.A                                 A O.1.1.1.1.1.1.1.1.1.1.1.1.1.    n.n.n.",
"n.n.n.n.n.n.n.n.n.n.n.    1.1.1.1.1.1.1.1.1.1.=./ i .                                       r S %.1.1.1.1.1.1.1.1.1.1.    n.n.n.",
"n.n.n.n.n.n.n.n.n.n.n.    1.1.1.1.1.1.1.>.' m &     ; M | <.1.1.1.1.1.1.1.1.1.1.1.1.1...C 1     + a ) ;.1.1.1.1.1.1.1.    n.n.n.",
"n.n.n.n.n.n.n.n.n.n.n.    1.1.1.1.1...C 2     + a ) ;.1.1.1.1.1.1.1.1.1.1.1.1.1.1.1.1.1.1.>.' m %     ; M | <.1.1.1.1.    n.n.n.",
"n.n.n.n.n.n.n.n.n.n.n.    1.1.1.1.o.      u ^ &.1.1.1.1.1.1.1.1.1.1.1.1.1.1.1.1.1.1.1.1.1.1.1.1.&.^ u       o.1.1.1.1.    n.n.n.",
"n.n.n.n.n.n.n.n.n.n.n.    1.1.1.1.1.b Z O.1.1.1.1.1.1.1.1.1.1.1.1.1.1.1.1.1.1.1.1.1.1.1.1.1.1.1.1.1.1.O.Z b 1.1.1.1.1.    n.n.n.",
"n.n.n.n.n.n.n.n.n.n.n.    1.1.1.1.1.1.1.1.1.1.1.1.1.1.1.1.1.1.1.1.1.1.1.1.1.1.1.1.1.1.1.1.1.1.1.1.1.1.1.1.1.1.1.1.1.1.    n.n.n.",
"n.n.n.n.n.n.n.n.n.n.n.    #.1.1.1.1.1.1.1.1.1.1.1.1.1.1.1.1.1.1.1.1.1.1.1.1.1.1.1.1.1.1.1.1.1.1.1.1.1.1.1.1.1.1.1.1.@.    n.n.n.",
"n.n.n.n.n.n.n.n.n.n.n.    v #.1.1.1.1.1.1.1.1.1.1.1.1.1.1.1.1.1.1.1.1.1.1.1.1.1.1.1.1.1.1.1.1.1.1.1.1.1.1.1.1.1.1.@.c     n.n.n.",
"n.n.n.n.n.n.n.n.n.n.n.n.                                                                                                n.n.n.n.",
"n.n.n.n.n.n.n.n.n.n.n.n.n.                                                                                            n.n.n.n.n.",
"n.n.n.n.n.n.n.n.n.n.n.n.n.n.n.n.n.n.n.n.n.n.n.n.n.n.n.n.n.n.n.n.n.n.n.n.n.n.n.n.n.n.n.n.n.n.n.n.n.n.n.n.n.n.n.n.n.n.n.n.n.n.n.n.",
"n.n.n.n.n.n.n.n.n.n.n.n.n.n.n.n.n.n.n.n.n.n.n.n.n.n.n.n.n.n.n.n.n.n.n.n.n.n.n.n.n.n.n.n.n.n.n.n.n.n.n.n.n.n.n.n.n.n.n.n.n.n.n.n.",
"n.n.n.n.n.n.n.n.n.n.n.n.n.n.n.n.n.n.n.n.n.n.n.n.n.n.n.n.n.n.n.n.n.n.n.n.n.n.n.n.n.n.n.n.n.n.n.n.n.n.n.n.n.n.n.n.n.n.n.n.n.n.n.n.",
"n.n.n.n.n.n.n.n.n.n.n.n.n.n.n.n.n.n.n.n.n.n.n.n.n.n.n.n.n.n.n.n.n.n.n.n.n.n.n.n.n.n.n.n.n.n.n.n.n.n.n.n.n.n.n.n.n.n.n.n.n.n.n.n.",
"n.n.n.n.n.n.n.n.n.n.n.n.n.n.n.n.n.n.n.n.n.n.n.n.n.n.n.n.n.n.n.n.n.n.n.n.n.n.n.n.n.n.n.n.n.n.n.n.n.n.n.n.n.n.n.n.n.n.n.n.n.n.n.n.",
"n.n.n.n.n.n.n.n.n.n.n.n.n.n.n.n.n.n.n.n.n.n.n.n.n.n.n.n.n.n.n.n.n.n.n.n.n.n.n.n.n.n.n.n.n.n.n.n.n.n.n.n.n.n.n.n.n.n.n.n.n.n.n.n.",
"n.n.n.n.n.n.n.n.n.n.n.n.n.n.n.n.n.n.n.n.n.n.n.n.n.n.n.n.n.n.n.n.n.n.n.n.n.n.n.n.n.n.n.n.n.n.n.n.n.n.n.n.n.n.n.n.n.n.n.n.n.n.n.n.",
"n.n.n.n.n.n.n.n.n.n.n.n.n.n.n.n.n.n.n.n.n.n.n.n.n.n.n.n.n.n.n.n.n.n.n.n.n.n.n.n.n.n.n.n.n.n.n.n.n.n.n.n.n.n.n.n.n.n.n.n.n.n.n.n.",
"n.n.n.n.n.n.n.n.n.n.n.n.n.n.n.n.n.n.n.n.n.n.n.n.n.n.n.n.n.n.n.n.n.n.n.n.n.n.n.n.n.n.n.n.n.n.n.n.n.n.n.n.n.n.n.n.n.n.n.n.n.n.n.n."
};
