/* XPM */
static char *_5bb1cc07d174f60d85c9c646bfc01e5P8f2DOmygZw4U8J7[] = {
/* columns rows colors chars-per-pixel */
"64 64 107 2 ",
"   c None",
".  c #000000",
"X  c #060D05",
"o  c #090C04",
"O  c #0B0C0C",
"+  c #071207",
"@  c #0B1106",
"#  c #071008",
"$  c #09150A",
"%  c #0B1B0C",
"&  c #111205",
"*  c #111909",
"=  c #0D210E",
"-  c #1A240E",
";  c #19280E",
":  c #0F2410",
">  c #0F2910",
",  c #102511",
"<  c #132B14",
"1  c #1E2D10",
"2  c #133214",
"3  c #163817",
"4  c #173618",
"5  c #173E19",
"6  c #1B3E1D",
"7  c #232408",
"8  c #2D2E0C",
"9  c #36360C",
"0  c #222F12",
"q  c #273615",
"w  c #223813",
"e  c #2A3B16",
"r  c #2D3F18",
"t  c #1E441F",
"y  c #1B4A1E",
"u  c #2F4319",
"i  c #2D4A19",
"p  c #354A1C",
"a  c #384F1E",
"s  c #1F4720",
"d  c #1E5321",
"f  c #214F23",
"g  c #235325",
"h  c #225B25",
"j  c #265728",
"k  c #275A29",
"l  c #295D2B",
"z  c #3C5521",
"x  c #3B5820",
"c  c #246327",
"v  c #256529",
"b  c #2C662E",
"n  c #26682A",
"m  c #2B6A2E",
"M  c #3D6422",
"N  c #2A732E",
"B  c #2E6A30",
"V  c #306E32",
"C  c #2D7631",
"Z  c #2E7D32",
"A  c #327334",
"S  c #327C35",
"D  c #377E39",
"F  c #515717",
"G  c #415C23",
"H  c #446024",
"J  c #496627",
"K  c #4D6C29",
"L  c #52742C",
"P  c #587B2F",
"I  c #525356",
"U  c #5E5F62",
"Y  c #308134",
"T  c #3A853D",
"R  c #368B3A",
"E  c #3C8A3F",
"W  c #5D8231",
"Q  c #558B30",
"!  c #648C35",
"~  c #669037",
"^  c #689237",
"/  c #649B37",
"(  c #6A9539",
")  c #6E9A3B",
"_  c #6FA63C",
"`  c #76A63F",
"'  c #3E8E41",
"]  c #3D9441",
"[  c #419644",
"{  c #429946",
"}  c #459E48",
"|  c #47A44B",
" . c #48A64C",
".. c #4AAB4E",
"X. c #4CAF50",
"o. c #7AAB41",
"O. c #82821E",
"+. c #8A891F",
"@. c #8A9426",
"#. c #949322",
"$. c #9E9D24",
"%. c #9AA62B",
"&. c #CDDC39",
"*. c #82B645",
"=. c #85BA47",
"-. c #88BE48",
";. c #8BC34A",
/* pixels */
"                                                                                                                                ",
"                                                                                                                                ",
"                                                                                                                                ",
"                                                                                                                                ",
"                                                                                                                                ",
"                                                                                                                                ",
"                                                                                                                                ",
"      . . . . . . . . . . . . . . . . . . . . . . . . . . . . . . . . . . . . . . . . . . . .                                   ",
"  . . . . . . . . . . . . . . . . . . . . . . . . . . . . . . . . . . . . . . . . . . . . . . . .                               ",
". . # 2 2 2 2 2 2 2 2 2 > . . a a a a a a * . 0 a a a q . o a a a a a o . = 2 2 2 2 2 2 2 2 2 $ . .                             ",
". . c Y C d d h Z Z Z Z v . o ;.;.;.;.;.;.u . J ;.;.;.! . * ;.;.;.;.;.- . d Z Z Z Z h d d N Z N . .                             ",
". . m Z 2 . . . y Z Z Z v . o ;.;.;.;.;.;.u . J ;.;.;.! . * ;.;.;.;.;.- . d Z Z Z h . . . = Z Z . .                             ",
". . m Z h % $ = n Z Z Z v . o ;.;.;.;.;.;.u . J ;.;.;.! . * ;.;.;.;.;.- . d Z Z Z N = $ % y Z Z . .                             ",
". . n Z Z N n N Z Z Z Z v . o ;.;.;.;.;.;.u . J ;.;.;.! . * ;.;.;.;.;.- . d Z Z Z Z C m n Y Z Z . .                             ",
". . N Z 5 . . . d Z Z Z v . o ;.;.;.;.;.;.u . J ;.;.;.! . * ;.;.;.;.;.- . d Z Z Z c . . . > Y Z . .                             ",
". . n Z y . . X h Z Z Z v . o ;.;.;.;.;.;.u . J ;.;.;.! . * ;.;.;.;.;.- . d Z Z Z v o . . 3 Y Z . .                             ",
". . n Y Z Z Z Z Z Z Z N 2 . . . . . . . . . . . . . . . . . . . . . . . . % N Z Z Z Z Z Z Z Z Z . .                             ",
". . d Z Z Z Z Z Z Z Z = . . . . . . . . . . . . . . . . . . . . . . . . . . + C Z Z Z Z Z Z Z c . .                             ",
". . . # # o # # # # o . . ! o.o.o.o.o.o.o.o.o.o.o.o.o.o.o.o.o.o.o.o.o.o.( @ . o # + o # # # o . . .                             ",
"  . . . . . . . . . . . r ;.;.;.;.;.;.;.;.;.;.;.;.;.;.;.;.;.;.;.;.;.;.;.;.G . . . . . . . . . . .                               ",
"        . . z ! ! ! ! ~ -.;.;.^ a q q q q q q q q q q q q q q q q p W ;.;.;.^ ! ! ! ! J . .                                     ",
"        . . L ;.;.;.;.;.;.;.P . . . . . . . . . . . . . . . . . . . . H ;.;.;.;.;.;.;.! . .                                     ",
"        . . L ;.;.;.;.;.;.;.@ . 4 b b m B b b b b B B B B B B B B t . . *.;.;.;.;.;.;.! . .                                     ",
"        . . q G H W ;.;.;.o.. . ..X.X.X.X.X.X.X.X.X.X.X.X.X.X.X.X.X.o . ~ ;.;.;.;.;.;.! . .                                     ",
"        . . . . . . 0 -.;.o.. . X.X.[ l V X.| b b | X.A l [ X.X.X.X.$ . ! ;.;.;.;.;.;.! . .                                     ",
"        . . < t 6 X . K ;.o.. . X.X.< . . ' k . . k ' . . , X.X.X.X.$ . ! ;.;.;.;.;.;.! . .                                     ",
"        . . B X...k . r ;.o.. . X.X.D 6 d  .] i s [ | f 6 D X.X.X.X.$ . G P W ! =.;.;.! . .                                     ",
"        . . b X.X.b . q ;.o.. . X.X.X...X.X.X.X.X.X.X.X.X.X.X.X.X.X.$ . . . . . @ W ! J . .                                     ",
"        . . g ' E , . z ;.o.. . X.X.X.X.X.X.X.X.X.X.X.X.X.X.X.X.X.X.$ . % = % @ . . . . . .                                     ",
"        . . . . . . o ` ;.o.. . X.X.X.X.X.X.X.X.X.X.X.X.X.X.X.X.X.X.$ . D X.X.g . o $ # . . . . . . . . . . . . . . . . . . . . ",
"        . . o o @ q ) ;.;.o.. . X.X.X.X.X.X.X.X.X.X.X.X.| |  .X.X.X.$ . D X.X.g . s X.D . . . O O o . o . O O o . o o O o . . . ",
"        . . L ;.;.;.;.;.;.o.. . X.X.X.X.X.X.X.X.X.' < . . . . 2 X.X.$ . D X.X.g . s X.D . O U U U U U U U U U U U U U U U I . . ",
"        . . L ;.;.;.;.;.;.o.. . X.X.B % o 4 { X. .$ . . . . . . X.X.$ . D X.X.g . s X.D . O U U U U U U U U U U U U U U U I . . ",
"        . . . o o q ) ;.;.o.. . X.V . . . . %  .A . o O.#.O.. . X.X.$ . D X.X.g . s X.D . . o . o O O . o . o O O . O o . . . . ",
"        . . . . . . o ` ;.o.. . X.: . F %.& . S l . 9 $.$.+.. . X.X.$ . D X.X.g . o $ @ . . . . . . . . . . . . . . . . . . . . ",
"        . . g ] T : . z ;.o.. . X.$ . @.&.8 . b l . 9 $.$.+.. . X.X.$ . $ = = # . . . . . .                                     ",
"        . . b X.X.b . q ;.o.. . X.s . o 7 . . { b . 7 $.$.+.. . X.X.$ . . . . . @ W ! J . .                                     ",
"        . . b X.X.k . u ;.o.. . X. .: . . . m X.[ . . 7 9 8 . . X.X.$ . G P P ! *.;.;.! . .                                     ",
"        . . < s 6 X . K ;.o.. . X.X...T Y | X.X.X.v . . . . . o X.X.@ . ~ ;.;.;.;.;.;.! . .                                     ",
"        . . . . . . 0 -.;.o.. . R E ] ] R } E ] E E S j f f d C ] R # . ! ;.;.;.;.;.;.! . .                                     ",
"        . . q G H W ;.;.;.o.. . Z Z Z Z Z Z Z Z Z Z Z Z Z Z Z Z Z Z X . ^ ;.;.;.;.;.;.! . .                                     ",
"        . . L ;.;.;.;.;.;.;.@ . > y y y y y y y y y y y y y y y s 2 . . *.;.;.;.;.;.;.! . .                                     ",
"        . . L ;.;.;.;.;.;.;.P . . . . . . . . . . . . . . . . . . . . H ;.;.;.;.;.;.;.! . .                                     ",
"        . . z ! ! ! ! ~ -.;.;.^ p q q q q q q q q q q q q q q q q p W ;.;.;.( ! ! ! ! J . .                                     ",
"  . . . . . . . . . . . q ;.;.;.;.;.;.;.;.;.;.;.;.;.;.;.;.;.;.;.;.;.;.;.;.G . . . . . . . . . . .                               ",
". . . $ $ $ $ $ $ $ $ . . ! o.o.o.o.o.o.o.o.o.o.o.o.o.o.o.o.o.o.o.o.o.o.( @ . X $ $ $ $ $ $ $ . . .                             ",
". . A X.X.X.X.X.X.X.X.< . . . . . . . . . . . . . . . . . . . . . . . . . . % ..X.X.X.X.X.X.X.E . .                             ",
". . { X.X.X.X.X.X.X.X.| t . . . . . . . . . . . . . . . . . . . . . . . . < { X.X.X.X.X.X.X.X.X.. .                             ",
". . { X.b . . o T X.X.X.' . o ;.;.;.;.;.;.u . J ;.;.;.! . * ;.;.;.;.;.- . A X.X.X.[ X . . f X.X.. .                             ",
". . { X.j . . . A X.X.X.' . o ;.;.;.;.;.;.u . J ;.;.;.! . * ;.;.;.;.;.- . A X.X.X.' . . . 6 X.X.. .                             ",
". . { X.X.} [ | X.X.X.X.' . o ;.;.;.;.;.;.u . J ;.;.;.! . * ;.;.;.;.;.- . A X.X.X.X. .{ { X.X.X.. .                             ",
". . [ X.D : : < ] X.X.X.' . o ;.;.;.;.;.;.u . J ;.;.;.! . * ;.;.;.;.;.- . A X.X.X.} < : = B X.... .                             ",
". . N R 3 . . . d R R R C . o / / / / / / w . x _ _ _ L . @ / / / / / * . h R R R v . . . = R Y . .                             ",
". . c Z Z d d h Z Z Z Y v . . Q Q Q Q Q Q 1 . i Q Q Q M . $ Q Q Q Q Q * . d Z Z Z Z h d d N Z N . .                             ",
". . o 2 2 2 2 2 2 2 2 2 > . . q w w w w w @ . * w w w ; . o w w w w w o . = 2 2 2 2 2 2 2 2 2 $ . .                             ",
"  . . . . . . . . . . . . . . . . . . . . . . . . . . . . . . . . . . . . . . . . . . . . . . . .                               ",
"      . . . . . . . . . . . . . . . . . . . . . . . . . . . . . . . . . . . . . . . . . . . .                                   ",
"                                                                                                                                ",
"                                                                                                                                ",
"                                                                                                                                ",
"                                                                                                                                ",
"                                                                                                                                ",
"                                                                                                                                ",
"                                                                                                                                "
};
