/* XPM */
static char *result[] = {
/* columns rows colors chars-per-pixel */
"64 64 241 2 ",
"   c #1D4859",
".  c #1E4859",
"X  c #1F4959",
"o  c #1E485A",
"O  c #1E495A",
"+  c #1F495B",
"@  c #294D56",
"#  c #204859",
"$  c #244959",
"%  c #264958",
"&  c #204A5D",
"*  c #204B5D",
"=  c #214B5F",
"-  c #224C5D",
";  c #2A4A58",
":  c #394C57",
">  c #304A58",
",  c #334B58",
"<  c #224C60",
"1  c #244E62",
"2  c #264F65",
"3  c #275067",
"4  c #285168",
"5  c #285169",
"6  c #29526A",
"7  c #2B536C",
"8  c #2C556F",
"9  c #2E5671",
"0  c #305873",
"q  c #325976",
"w  c #375E75",
"e  c #335A78",
"r  c #355C7A",
"t  c #365C7C",
"y  c #375D7D",
"u  c #385E7E",
"i  c #385E7F",
"p  c #3C5F7F",
"a  c #3E5F7F",
"s  c #525C4B",
"d  c #434D57",
"f  c #464D56",
"g  c #4E4E56",
"h  c #4F4E56",
"j  c #574F55",
"k  c #5F5055",
"l  c #6A5254",
"z  c #6F5254",
"x  c #7A5453",
"c  c #53614C",
"v  c #526250",
"b  c #6F6E45",
"n  c #706F45",
"m  c #757144",
"M  c #415F7E",
"N  c #445F7D",
"B  c #475F7C",
"V  c #4C5F7B",
"C  c #725D68",
"Z  c #5C6076",
"A  c #526079",
"S  c #556078",
"D  c #686073",
"F  c #716070",
"G  c #DB3F2E",
"H  c #8E7D3E",
"J  c #937F3D",
"K  c #9E7838",
"L  c #DC402F",
"P  c #DD4130",
"I  c #DD4230",
"U  c #DE4331",
"Y  c #D24838",
"T  c #E04533",
"R  c #E14533",
"E  c #E14633",
"W  c #E24836",
"Q  c #E44A37",
"!  c #E54C38",
"~  c #E74D39",
"^  c #E74F3A",
"/  c #E84F3A",
"(  c #ED553F",
")  c #855552",
"_  c #8A5652",
"`  c #955751",
"'  c #9F5951",
"]  c #A55950",
"[  c #B05B50",
"{  c #8B7C41",
"}  c #AF625F",
"|  c #B8625D",
" . c #BD625C",
".. c #80616C",
"X. c #8A616A",
"o. c #8E6169",
"O. c #976166",
"+. c #A16263",
"@. c #A56262",
"#. c #C05D4F",
"$. c #C45D4E",
"%. c #CA5E4E",
"&. c #CF5F4E",
"*. c #F25C44",
"=. c #D6604D",
"-. c #DE614D",
";. c #C76359",
":. c #D36355",
">. c #DB6353",
",. c #DE6352",
"<. c #E2614C",
"1. c #E8624C",
"2. c #ED624C",
"3. c #EA644F",
"4. c #EC644F",
"5. c #F3634B",
"6. c #F76149",
"7. c #F6644B",
"8. c #F7644B",
"9. c #F0634C",
"0. c #F1644D",
"q. c #F4644C",
"w. c #F5644C",
"e. c #F9634B",
"r. c #F9654A",
"t. c #F8644B",
"y. c #F9644B",
"u. c #F8654B",
"i. c #F9654B",
"p. c #FA644B",
"a. c #FA654B",
"s. c #F9644C",
"d. c #FA644C",
"f. c #E56351",
"g. c #BD9333",
"h. c #BE9332",
"j. c #FA931F",
"k. c #FF901D",
"l. c #FF911D",
"z. c #FF921D",
"x. c #FF931D",
"c. c #FF941E",
"v. c #FF951E",
"b. c #FF961E",
"n. c #FF971E",
"m. c #FF981E",
"M. c #FF991E",
"N. c #FF991F",
"B. c #FF9A1E",
"V. c #FF9A1F",
"C. c #FF9B1F",
"Z. c #FF9C1F",
"A. c #FF9D1F",
"S. c #CF8A2C",
"D. c #F89320",
"F. c #FF9C20",
"G. c #FF9D20",
"H. c #FF9D21",
"J. c #EFAA27",
"K. c #EEA828",
"L. c #FFA020",
"P. c #FFA120",
"I. c #FFA220",
"U. c #FFA521",
"Y. c #FFA721",
"T. c #FFAD22",
"R. c #FFAE22",
"E. c #FFAF23",
"W. c #FDB023",
"Q. c #FFB022",
"!. c #FFB122",
"~. c #FFB023",
"^. c #FFB123",
"/. c #FEB124",
"(. c #FCB026",
"). c #FCB127",
"_. c #FDB127",
"`. c #F9B12D",
"'. c #EDB13E",
"]. c #F2B137",
"[. c #F9B536",
"{. c #F1B139",
"}. c #F5B43B",
"|. c #DCB159",
" X c #EAB143",
".X c #E9B144",
"XX c #EFB648",
"oX c #F4B641",
"OX c #E1B457",
"+X c #D6B162",
"@X c #DFBF78",
"#X c #DCC07F",
"$X c #395F80",
"%X c #3A5F80",
"&X c #396081",
"*X c #456989",
"=X c #7B97B0",
"-X c #B3B297",
";X c #829EB6",
":X c #9FAFAE",
">X c #97AFBA",
",X c #91AABE",
"<X c #9FB2B6",
"1X c #9BB2BC",
"2X c #A6B2AB",
"3X c #A2B2B2",
"4X c #C3B78C",
"5X c #94ADC1",
"6X c #9EB5C2",
"7X c #9BB3C5",
"8X c #9AB3C6",
"9X c #9EB6C5",
"0X c #9DB4C8",
"qX c #A4BAC4",
"wX c #A6BDCB",
"eX c #A6BDCF",
"rX c #A7BDCF",
"tX c #A6BCD0",
"yX c #AAC0CD",
"uX c #ACC1CD",
"iX c #AEC3D0",
"pX c #AEC4D3",
"aX c #B2C7D3",
"sX c #B3C8D2",
"dX c #B4C9D5",
"fX c #B6CBD7",
"gX c #B3C7D8",
"hX c #BACED8",
"jX c #BACED9",
"kX c #BBCFD9",
"lX c #BACEDA",
"zX c #B8CCDD",
"xX c #BDD0E0",
"cX c #BFD2E2",
"vX c #CAD4D3",
"bX c #C0D3E2",
"nX c #C4D6E1",
"mX c #C5D7E2",
"MX c #DBEAF7",
"NX c #E1EFFB",
"BX c None",
/* pixels */
"BXBXBXBXBXBXBXBXBXBXBXBXBXBXBXBXBXBXBXBXBXBXBXBXBXBXBXBXBXBXBXBXBXBXBXBXBXBXBXBXBXBXBXBXBXBXBXBXBXBXBXBXBXBXBXBXBXBXBXBXBXBXBXBX",
"BXBXBXBXBXBXBXBXBXBXBXBXBXBXBXBXBXBXBXBXBXBXBXBXBXBXBXBXBXBXBXBXBXBXBXBXBXBXBXBXBXBXBXBXBXBXBXBXBXBXBXBXBXBXBXBXBXBXBXBXBXBXBXBX",
"BXBXBXBXBXBXBXBXBXBXBXBXBXBXBXBXBXBXBXBXBXBXBXBXBXBXBXBXBXBXBXBXBXBXBXBXBXBXBXBXBXBXBXBXBXBXBXBXBXBXBXBXBXBXBXBXBXBXBXBXBXBXBXBX",
"BXBXBXBXBXBXBXBXBXBXBXBXBXBXBXBXBXBXBXBXBXBXBXBXBXBXBXBXBXBXt.y.y.y.BXBXBXBXBXBXBXBXBXBXBXBXBXBXBXBXBXBXBXBXBXBXBXBXBXBXBXBXBXBX",
"BXBXBXBXBXBXBXBXBXBXBXBXBXBXBXBXBXBXBXBXBXBXBXBXBXBXBXBXs.y.y.y.y.y.y.u.BXBXBXBXBXBXBXBXBXBXBXBXBXBXBXBXBXBXBXBXBXBXBXBXBXBXBXBX",
"BXBXBXBXBXBXBXBXBXBXBXBXBXBXBXBXBXBXBXBXBXBXBXBXBXBXr.y.y.y.y.y.y.y.y.y.y.BXBXBXBXBXBXBXBXBXBXBXBXBXBXBXBXBXBXBXBXBXBXBXBXBXBXBX",
"BXBXBXBXBXBXBXBXBXBXBXBXBXBXBXBXBXBXBXBXBXBXBXBXBXd.y.y.y.y.y.y.y.y.y.y.y.y.y.BXBXBXBXBXBXBXBXBXBXBXBXBXBXBXBXBXBXBXBXBXBXBXBXBX",
"BXBXBXBXBXBXBXBXBXBXBXBXBXBXBXBXBXBXBXBXBXBXBXy.y.y.y.y.y.y.y.y.y.y.y.y.y.y.y.y.y.BXBXBXBXBXBXBXBXBXBXBXBXBXBXBXBXBXBXBXBXBXBXBX",
"BXBXBXBXBXBXBXBXBXBXBXBXBXBXBXBXBXBXBXBXBXy.y.y.y.y.y.y.y.y.y.y.y.y.y.y.y.y.y.y.y.y.y.BXBXBXBXBXBXBXBXBXBXBXBXBXBXBXBXBXBXBXBXBX",
"BXBXBXBXBXBXBXBXBXBXBXBXBXBXBXBXBXBXBXu.y.y.y.y.y.y.y.y.y.y.$.g j &.y.y.y.y.y.y.y.y.y.y.p.BXBXBXBXBXBXBXBXBXBXBXBXBXBXBXBXBXBXBX",
"BXBXBXBXBXBXBXBXBXBXBXBXBXBXBXBXBXBXi.y.y.y.y.y.y.y.y.y.,.C <     . z <.y.y.y.y.y.y.y.y.y.y.BXBXBXBXBXBXBXBXBXBXBXBXBXBXBXBXBXBX",
"BXBXBXBXBXBXBXBXBXBXBXBXBXBXBXBXy.y.y.y.y.y.y.y.y.y.4.o.a $X$X9 &     % _ 9.y.y.y.y.y.y.y.y.y.s.BXBXBXBXBXBXBXBXBXBXBXBXBXBXBXBX",
"BXBXBXBXBXBXBXBXBXBXBXBXBXBXe.y.y.y.y.y.y.y.y.y.w.@.B $X$X$X$X$Xu 7 O     , ] 8.y.y.y.y.y.y.y.y.y.a.BXBXBXBXBXBXBXBXBXBXBXBXBXBX",
"BXBXBXBXBXBXBXBXBXBXBXBXy.y.y.y.y.y.y.y.y.y.y. .S $X$X$X$X$X$X$X$X$Xt 3       f #.y.y.y.y.y.y.y.y.y.y.e.BXBXBXBXBXBXBXBXBXBXBXBX",
"BXBXBXBXBXBXBXBXBXBXs.y.y.y.y.y.y.y.y.y.y.:.D $X$X$X$X$X$X$X$X$X$X$X$X$Xe 1       k =.y.y.y.y.y.y.y.y.y.y.s.BXBXBXBXBXBXBXBXBXBX",
"BXBXBXBXBXBXBXBXBXt.y.y.y.y.y.y.y.y.y.f...%X$X$X$X$X$X$X$X$X$X$X$X$X$X$X$X$X0 =     # x 1.y.y.y.y.y.y.y.y.y.y.BXBXBXBXBXBXBXBXBX",
"BXBXBXBXBXBXBXy.y.y.y.y.y.y.y.y.y.0.O.M $X$X$X$X$X$X$X$X$X$X$X$X$X$X$X$X$X$X$Xi 8 +     ; ` 5.y.y.y.y.y.y.y.y.y.y.BXBXBXBXBXBXBX",
"BXBXBXBXBXp.y.y.y.y.y.y.y.y.y.8.} V $X$X$X$X$X$X$X$X$X$X$X$X$X$X$X$X$X$X$X$X$X$X$Xy 6 o     : [ y.y.y.y.y.y.y.y.y.y.*.BXBXBXBXBX",
"BXBXBXt.y.y.y.y.y.y.y.y.y.y.;.Z $X$X$X$X$X$X$X$X$X$X$X$X$X$X$X$X$X$X$X$X$X$X$X$X$X$X$Xr 2       h %.y.y.y.y.y.y.y.y.E L Q BXBXBX",
"BXBXy.y.y.y.y.y.y.y.y.y.>.F $X$X$X$X$X$X$X$X$X$X$X$X$X$X$X$X$X$X$X$X$X$X$X$X$X$X$X$X$X$X$Xq <     . l -.y.y.y.y.y.( G G G P ! BX",
"s.y.y.y.y.y.y.y.y.y.3.X.p $X$X$X$X$X$X$X$X$X$X$X$X$X$X$X$X$X$X$X$X$X$X$X$X$X$X$X$X$X$X$X$X$X$X9 &     $ ) 2.y.y.6.I G G G G G W ",
"y.y.y.y.y.y.y.y.q.+.N $X$X$X$X$X$X$X$X$X$X$X$X$X$X$X$X$X$X$X$X$X$X$X$X$X$X$X$X$X$X$X$X$X$X$X$X$Xu 7 O     > ' 7./ G G G G G G R ",
"BXy.y.y.y.y.y.| A $X$X$X$X$X$X$X$X$X$X$X$X$X$X$X$X$X$X$X$X$X$X$X$X$X$X$X$X$X$X$X$X$X$X$X$X$X$X$X$X$X4         d Y G G G G G G ^ ",
"BXy.y.y.y.s.BX$X$X$X$X$X$X$X$X$X$X$X$X$X$X$X$X$X$X$X$X$X$X$X$X$X$X$X$X$X$X$X$X$X$X$X$X$X$X$X$X$X$X$X5           * BXT G G G E BX",
"BXBXt.e.BXBXBX$X$X$X$X$X$X*X=X;X;X;X;X;X;X;X;X;X;X;X;X;X;X;X;X;X;X;X;X;X;X;X;X;X;X;X;X;X5X7X7X7X7X,Xw           * BXBX~ U U BXBX",
"BXBXBXBXBXBXBX$X$X$X$X$X$XtXNXNXNXNXNXNXNXNXNXNXNXNXNXNXNXNXNXNXNXNXNXNXNXNXNXNXNXNXNXNXmXhXhXhXhXhXwX          * BXBXBXBXBXBXBX",
"BXBXBXBXBXBXBX$X$X$X$X$X$XxXNXNXNXNXNXNXNXNXNXNXNXNXNXNXNXNXNXNXNXNXNXNXNXNXNXNXNXNXNXNXmXhXhXhXhXhXdX          * BXBXBXBXBXBXBX",
"BXBXBXBXBXBXBX$X$X$X$X$X$XxXNXNXNXNXNXNXNXNXNXNXNXNXNXNXNXNXNXNXNXNXNXNXNXNXNXNXNXNXNXNXmXhXhXhXhXhXdX          * BXBXBXBXBXBXBX",
"BXBXBXBXBXBXBX$X$X$X$X$X$XxXNXNXNXNXNXNXNXNXNXNXNXNXNXNXNXNXNXNXNXNXNXNXNXNXNXNXNXNXNXNXmXhXhXhXhXhXdX          * BXBXBXBXBXBXBX",
"BXBXBXBXBXBXBX$X$X$X$X$X$XzXMXMXMXMXMXMXMXMXMXMXMXMXMXMXMXMXMXMXMXMXMXMXMXMXMXMXMXMXMXMXnXkXkXkXkXkXaX          * BXBXBXBXBXBXBX",
"BXBXBXBXBXBXBX$X$X$X$X$X$X9XhXhXhXhXhXhXhXhXhXhXhXhXhXhXhXhXhXhXhXhXhXhXhXhXhXhXhXhXhXhXqX1X1X1X1X1X>X          * BXBXBXBXBXBXBX",
"BXBXBXBXBXBXBX$X$X$X$X$X$X9XhXhXhXhXhXhXhXhXhXhXhXhXhXhXhXhXhXhXhXhXhXhXhXhXhXhXhXhXhXhXqX1X1X1X1X1X>X          * BXBXBXBXBXBXBX",
"BXBXBXBXBXBXBX$X$X$X$X$X$X9XhXhXhXhXhXhXhXhXhXhXhXhXhXhXhXhXhXhXhXhXhXhXhXhXhXhXhXhXhXhXqX1X1X1X1X1X>X          * BXBXBXBXBXBXBX",
"BXBXBXBXBXBXBX$X$X$X$X$X$X9XhXhXhXhXhXhXhXhXhXhXhXhXhXhXhXhXhXhXhXhXhXhXhXhXhXhXhXhXhXhXqX1X1X1X1X1X>X          * BXBXBXBXBXBXBX",
"BXBXBXBXBXBXBX$X$X$X$X$X$X9XhXhXhXhXhXhXhXhXhXhXhXhXhXhXhXhXhXhXhXhXhXhXhXhXhXhXhXhXhXhXqX1X1X1X1X1X>X          * BXBXBXBXBXBXBX",
"BXBXBXBXBXBXBX$X$X$X$X$X$X0XgXgXgXgXgXgXgXgXgXgXgXgXgXgXgXgXgXgXgXgXgXgXgXgXgXgXgXgXgXgXiXuXuXuXuXuX6X          * BXBXBXBXBXBXBX",
"BXBXBXBXBXBXBX$X$X$X$X$X$XxXNXNXNXNXNXNXNXNXNXNXNXNXNXNXNXNXNXNXNXNXNXNXNXNXNXNXNXNXNXNXmXhXhXhXhXhXdX          * BXBXBXBXBXBXBX",
"BXBXBXBXBXBXBX$X$X$X$X$X$XxXNXNXNXNXNXNXNXNXNXNXNXNXNXNXNXNXNXNXNXNXNXNXNXNXNXNXNXNXNXNXmXhXhXhXhXhXdX          * BXBXBXBXBXBXBX",
"BXBXBXBXBXBXBX$X$X$X$X$X$XxXNXNXNXNXNXNXNXNXNXNXNXNXNXNXNXNXNXNXNXNXNXNXNXNXNXNXNXNXNXNXmXhXhXhXhXhXdX          * BXBXBXBXBXBXBX",
"BXBXBXBXBXBXBX$X$X$X$X$X$XxXNXNXNXNXNXNXNXNXNXNXNXNXNXNXNXNXNXNXNXNXNXNXNXNXNXNXNXNXNXNXmXhXhXhXhXhXdX          * BXBXBXBXBXBXBX",
"BXBXBXBXBXBXBX$X$X$X$X$X$XrXbXbXbXbXbXbXbXbXbXbXbXbXbXbXbXbXbXbXbXbXbXbXbXbXbXbXbXbXbXbXlXjXjXjXjXjXyX          * BXBXBXBXBXBXBX",
"BXBXBXBXBXBXBX$X$X$X$X$X$X9XhXhXhXhXhXhXhXhXhXhXhXhXhXhXhXhXhXhXhXhXhXhXhXhXhXhXhXhXhXhXqX1X1X1X1X1X>X  s K K s * BXBXBXBXBXBXBX",
"BXBXBXBXBXBXBX$X$X$X$X$X$X9XhXhXhXhXhXhXhXhXhXhXhXhXhXhXhXhXhXhXhXhXhXhXhXhXhXhXhXhXhXhXqX1X1X1X1X1X>X  D.k.k.j.* BXBXBXBXBXBXBX",
"BXBXBXBXBXBXBX$X$X$X$X$X$X9XhXhXhXhXhXhXhXhXhXhXhXhXhXhXhXhXhXhXhXhXhXhXhXhXhXhXhXhXhXhXqX1X1X3X-X1X:XJ T.m.k.k.S.BXBXBXBXBXBXBX",
"BXBXBXBXBXBXBX$X$X$X$X$X$X9XhXhXhXhXhXhXhXhXhXhXhXhXhXhXhXhXhXhXhXhXhXhXhXhXhXhXhXhXhXhXqX1X2X{.^.].).^.^.^.A.k.k.l.c.k.c.BXBXBX",
"BXBXBXBXBXBXBX$X$X$X$X$X$X9XhXhXhXhXhXhXhXhXhXhXhXhXhXhXhXhXhXhXhXhXhXhXhXhXhXhXhXhXhXhXqX1X'.^.^.^.^.^.^.^.~.N.k.k.k.k.k.v.BXBX",
"BXBXBXBXBXBXBX$X$X$X$X$X$XeXcXcXcXcXcXcXcXcXcXcXcXcXcXcXcXcXcXcXcXcXcXcXcXcXcXcXcXcXcXcXfXsXXX^.^.^.^.^.^.^.^.E.z.k.k.k.k.v.BXBX",
"BXBXBXBXBXBXBX$X$X$X$X$X$XxXNXNXNXNXNXNXNXNXNXNXNXNXNXNXNXNXNXNXNXNXNXNXNXNXNXNXNXNXNXNXmXhX@X^.^.^.^.^.^.^.^.^.L.k.k.k.k.V.BXBX",
"BXBXBXBXBXBXBX$X$X$X$X$X$XxXNXNXNXNXNXNXNXNXNXNXNXNXNXNXNXNXNXNXNXNXNXNXNXNXNXNXNXNXNXNXmXhXoX^.^.^.^.^.h.m m g.R.l.k.k.k.v.BXBX",
"BXBXBXBXBXBXBX$X$X$X$X$X$XxXNXNXNXNXNXNXNXNXNXNXNXNXNXNXNXNXNXNXNXNXNXNXNXNXNXNXNXNXNXNXvX#X^.^.^.^.^.H         { b.k.k.k.k.C.BX",
"BXBXBXBXBXBXBX$X$X$X$X$X$XxXNXNXNXNXNXNXNXNXNXNXNXNXNXNXNXNXNXNXNXNXNXNXNXNXNXNXNXNXNXNX[.^.^.^.^.^.}.X         - B.k.k.k.k.k.x.",
"BXBXBXBXBXBXBX$X$X$X$X$X$X8XpXpXpXpXpXpXpXpXpXpXpXpXpXpXpXpXpXpXpXpXpXpXpXpXpXpXpXpXpXpX^.^.^.^.^.^.OX          * F.k.k.k.k.k.k.",
"BXBXBXBXBXBXBX$X$X$X$X$X$X9XhXhXhXhXhXhXhXhXhXhXhXhXhXhXhXhXhXhXhXhXhXhXhXhXhXhXhXhXhXhX_.^.^.^.^.^..X          * C.k.k.k.k.k.l.",
"BXBXBXBXBXBXBX$X$X$X$X$X$X9XhXhXhXhXhXhXhXhXhXhXhXhXhXhXhXhXhXhXhXhXhXhXhXhXhXhXhXhXhXhX4X X^.^.^.^./.c         v n.k.k.k.k.b.Z.",
"BXBXBXBXBXBXBX$X$X$X$X$X$X9XhXhXhXhXhXhXhXhXhXhXhXhXhXhXhXhXhXhXhXhXhXhXhXhXhXhXhXhXhXhXqX<X`.^.^.^.^.J.n @ @ b K.z.k.k.k.z.BXBX",
"BXBXBXBXBXBXBX$X$X$X$X$X$X9XhXhXhXhXhXhXhXhXhXhXhXhXhXhXhXhXhXhXhXhXhXhXhXhXhXhXhXhXhXhXqX1X+X^.^.^.^.^.^.W.W.^.U.k.k.k.k.V.BXBX",
"BXBXBXBXBXBXBX&X$X$X$X$X$X9XhXhXhXhXhXhXhXhXhXhXhXhXhXhXhXhXhXhXhXhXhXhXhXhXhXhXhXhXhXhXqX1X|.^.^.^.^.^.^.^.^.^.b.k.k.k.k.N.BXBX",
"BXBXBXBXBXBXBXBXBXBXBXBXBXBXBXBXBXBXBXBXBXBXBXBXBXBXBXBXBXBXBXBXBXBXBXBXBXBXBXBXBXBXBXBXBXBX(.^.^.^.^.^.^.^.^.P.k.k.k.k.k.z.BXBX",
"BXBXBXBXBXBXBXBXBXBXBXBXBXBXBXBXBXBXBXBXBXBXBXBXBXBXBXBXBXBXBXBXBXBXBXBXBXBXBXBXBXBXBXBXBXBXBX^.^.^.^.^.^.^.Y.k.k.k.k.k.k.H.BXBX",
"BXBXBXBXBXBXBXBXBXBXBXBXBXBXBXBXBXBXBXBXBXBXBXBXBXBXBXBXBXBXBXBXBXBXBXBXBXBXBXBXBXBXBXBXBXBXBXBXQ.BXBX!.^.I.l.k.v.A.BXM.BXBXBXBX",
"BXBXBXBXBXBXBXBXBXBXBXBXBXBXBXBXBXBXBXBXBXBXBXBXBXBXBXBXBXBXBXBXBXBXBXBXBXBXBXBXBXBXBXBXBXBXBXBXBXBXBXBXV.k.k.z.BXBXBXBXBXBXBXBX",
"BXBXBXBXBXBXBXBXBXBXBXBXBXBXBXBXBXBXBXBXBXBXBXBXBXBXBXBXBXBXBXBXBXBXBXBXBXBXBXBXBXBXBXBXBXBXBXBXBXBXBXBXG.N.N.G.BXBXBXBXBXBXBXBX",
"BXBXBXBXBXBXBXBXBXBXBXBXBXBXBXBXBXBXBXBXBXBXBXBXBXBXBXBXBXBXBXBXBXBXBXBXBXBXBXBXBXBXBXBXBXBXBXBXBXBXBXBXBXBXBXBXBXBXBXBXBXBXBXBX",
"BXBXBXBXBXBXBXBXBXBXBXBXBXBXBXBXBXBXBXBXBXBXBXBXBXBXBXBXBXBXBXBXBXBXBXBXBXBXBXBXBXBXBXBXBXBXBXBXBXBXBXBXBXBXBXBXBXBXBXBXBXBXBXBX"
};
