/* XPM */
static char *ee22fc9efda04b259fab0c09a8463df0tnoJPq0MYLB23zi2[] = {
/* columns rows colors chars-per-pixel */
"64 64 107 2 ",
"   c None",
".  c #000000",
"X  c #060D05",
"o  c #090C04",
"O  c #0B0C0C",
"+  c #071207",
"@  c #0B1106",
"#  c #071008",
"$  c #09150A",
"%  c #0B1B0C",
"&  c #111205",
"*  c #111909",
"=  c #0D210E",
"-  c #1A240E",
";  c #19280E",
":  c #0F2410",
">  c #0F2910",
",  c #102511",
"<  c #132B14",
"1  c #1E2D10",
"2  c #133214",
"3  c #163817",
"4  c #173618",
"5  c #173E19",
"6  c #1B3E1D",
"7  c #232408",
"8  c #2D2E0C",
"9  c #36360C",
"0  c #222F12",
"q  c #273615",
"w  c #223813",
"e  c #2A3B16",
"r  c #2D3F18",
"t  c #1E441F",
"y  c #1B4A1E",
"u  c #2F4319",
"i  c #2D4A19",
"p  c #354A1C",
"a  c #384F1E",
"s  c #1F4720",
"d  c #1E5321",
"f  c #214F23",
"g  c #235325",
"h  c #225B25",
"j  c #265728",
"k  c #275A29",
"l  c #295D2B",
"z  c #3C5521",
"x  c #3B5820",
"c  c #246327",
"v  c #256529",
"b  c #2C662E",
"n  c #26682A",
"m  c #2B6A2E",
"M  c #3D6422",
"N  c #2A732E",
"B  c #2E6A30",
"V  c #306E32",
"C  c #2D7631",
"Z  c #2E7D32",
"A  c #327334",
"S  c #327C35",
"D  c #377E39",
"F  c #515717",
"G  c #415C23",
"H  c #446024",
"J  c #496627",
"K  c #4D6C29",
"L  c #52742C",
"P  c #587B2F",
"I  c #525356",
"U  c #5E5F62",
"Y  c #308134",
"T  c #3A853D",
"R  c #368B3A",
"E  c #3C8A3F",
"W  c #5D8231",
"Q  c #558B30",
"!  c #648C35",
"~  c #669037",
"^  c #689237",
"/  c #649B37",
"(  c #6A9539",
")  c #6E9A3B",
"_  c #6FA63C",
"`  c #76A63F",
"'  c #3E8E41",
"]  c #3D9441",
"[  c #419644",
"{  c #429946",
"}  c #459E48",
"|  c #47A44B",
" . c #48A64C",
".. c #4AAB4E",
"X. c #4CAF50",
"o. c #7AAB41",
"O. c #82821E",
"+. c #8A891F",
"@. c #8A9426",
"#. c #949322",
"$. c #9E9D24",
"%. c #9AA62B",
"&. c #CDDC39",
"*. c #82B645",
"=. c #85BA47",
"-. c #88BE48",
";. c #8BC34A",
/* pixels */
"                  . . . . . . . . . .                                                     . . . . . . . . . .                   ",
"                . . . . . . . . . . . .                                                 . . . . . . . . . . . .                 ",
"                . X c N [ { { { { A . .                                                 . . d m N n m n m c X .                 ",
"              . . 2 Z R X.X.X.X.X...$ .                                                 . X Z Z Z Z Z Y Z Z 2 . .               ",
"              . . 2 C 3 D X.j b X.X.$ . . . . . . . . . . . . . . . . . . . . . . . . . . # Z Z y t Z d 2 Z 2 . .               ",
"              . . 2 d . : } . . X.X.$ . . . . . . . . . . . . . . . . . . . . . . . . . . # Z Z . . N % . d 2 . .               ",
"              . . 2 d . : { . . X.X.$ . z L L q . < b m g . o L L o . g b m < . q L L z . X Z Z . . n $ . d 2 . .               ",
"              . . 2 h . < | . X X.X.$ . ! ;.;.G . s X.X.' . o ;.;.o . ' X.X.s . G ;.;.! . # Z Z X . N = . h 2 . .               ",
"              . . 2 Z d ] X.A T X.X.$ . ! ;.;.H . 6 X...T . @ ;.;.o . T ..X.t . G ;.;.! . X Z Z h d Z n y Z 2 . .               ",
"              . . 2 Z R X.X.X.X.X.X.$ . ! ;.;.W . X k b , . q ;.;.q . , b k X . W ;.;.! . # Z Z Z Z Z Z Z Z 2 . .               ",
"              . . 2 Z R X.X.X.X.X.X.$ . ! ;.;.;.0 . . . . o ) ;.;.) o . . . . 0 ;.;.;.! . # Z Z Z Y Z Z Z Z 2 . .               ",
"              . . 2 Z R X.X.X.X. .< . . ~ ;.;.;.-.K r q z ` ;.;.;.;.` z q r K -.;.;.;.^ . . = N Z Z Z Z Z Z 2 . .               ",
"              . . > v N [ ' ' ' 6 . . e -.;.;.;.;.;.;.;.;.;.;.;.;.;.;.;.;.;.;.;.;.;.;.-.e . . < v v v v v v > . .               ",
"              . . . . . . . . . . . ! ;.;.;.;.o.o.o.o.o.o.o.o.o.o.o.o.o.o.o.o.o.o.;.;.;.;.! . . . . . . . . . . .               ",
"              . . . . o o o o o . . o.;.;.P @ . . . . . . . . . . . . . . . . . . @ P ;.;.o.. . X o o o o o . . .               ",
"              . . w Q / ;.;.;.;.. . o.;.^ . . . . . . . . . . . . . . . . . . . . . . ( ;.o.. . ;.;.;.;.;.;.a . .               ",
"              . . w Q / ;.;.;.;.. . o.;.a . = Z R X.X.X.X.X...X.X.X.X.X.X.X.X.X. .4 . a ;.o.. . ;.;.;.;.;.;.a . .               ",
"              . . w Q / ;.;.;.;.. . o.;.q . y Z E X...y $ > A X.X.X.X.X.X.X.X.X.X.b . q ;.o.. . ;.;.;.;.;.;.a . .               ",
"              . . w Q / ;.;.;.;.. . o.;.q . y Z E X.: . . . . B X.X.X.X.X.D < [ X.B . q ;.o.. . ;.;.;.;.;.;.a . .               ",
"              . . w Q / ;.;.;.;.. . o.;.q . y Z ] T . X @.F . % X.X.X.X.X.6 . l X.m . q ;.o.. . ;.;.;.;.;.;.a . .               ",
"              . . w Q / ;.;.;.;.. . o.;.q . y Z E S . 7 &.%.. o X.X.X.X.X.g . V X.b . q ;.o.. . ;.;.;.;.;.;.a . .               ",
"              . . @ 1 w u u u u . . o.;.q . y Z ] { . . 8 & . 4 X.X.X.X.X. .T X.X.B . q ;.o.. . u u u u u u * . .               ",
"              . . . . . . . . . . . o.;.q . y Z ] X.B . . . % { X.X.X.X.X.[ k | X.B . q ;.o.. . . . . . . . . . .               ",
"              . . * i x J J J J . . o.;.q . y Z ] X.X.[ B A ....X.X.X.X.X.t . b X.m . q ;.o.. . J J J J J J 1 . .               ",
"              . . w Q _ ;.;.;.;.. . o.;.q . y Z ] X.[ b l l A | X.X.X.X.X.t . b X.b . q ;.o.. . ;.;.;.;.;.;.a . .               ",
"              . . w Q _ ;.;.;.;.. . o.;.q . y Z E v . . . . . $ [ X.X.X.X.{ k | X.b . q ;.o.. . ;.;.;.;.;.;.a . .               ",
"              . . w Q _ ;.;.;.;.. . o.;.q . y Z S . . 7 9 9 o . , X.X.X.X. .T X.X.B . q ;.o.. . ;.;.;.;.;.;.a . .               ",
"              . . ; M L ! ! ! ! . . o.;.q . y Z j . 7 $.$.$.O.. . ..X.X.X.f . A X.m . q ;.o.. . ! ! ! ! ! ! q . .               ",
"              . . . . . . . . . . . o.;.q . y Z g . 9 $.$.$.#.. . | X.X.X.6 . l X.b . q ;.o.. . . . . . . . . . .               ",
"              . . X @ @ * * * * . . o.;.q . y Z f . 8 +.+.+.O.. . | X.X.X.D < [ X.B . q ;.o.. . * * * * * * X . .               ",
"              . . w Q / ;.;.;.;.. . o.;.q . y Z d . . . . . . . . | X.X.X.X.X.X.X.b . q ;.o.. . ;.;.;.;.;.;.a . .               ",
"              . . w Q / ;.;.;.;.. . o.;.q . y Z C o . . . . . . < X.X.X.X.X.X.X.X.m . q ;.o.. . ;.;.;.;.;.;.a . .               ",
"              . . w Q / ;.;.;.;.. . o.;.q . y Z ] X.X.X.X.X.X.X.X.X.X.X.X.X.X.X.X.m . q ;.o.. . ;.;.;.;.;.;.a . .               ",
"              . . w Q / ;.;.;.;.. . o.;.p . 2 Z R X.X.X.X.X.X.X.X.X.X.X.X.X.X.X.X.t . p ;.o.. . ;.;.;.;.;.;.a . .               ",
"              . . w Q / ;.;.;.;.. . o.;.W . . o # $ $ $ $ $ $ $ $ $ $ $ $ $ $ $ X . . W ;.o.. . ;.;.;.;.;.;.a . .               ",
"              . . X * * - - - - . . o.;.;.H . . . . . . . . . . . . . . . . . . . . H ;.;.o.. . - - - - - - o . .               ",
"              . . . . . . . . . . . ( ;.;.;.*.^ ! ! G . $ D D D D D D $ . G ! ! ^ *.;.;.;.( . . . . . . . . . . .               ",
"              . . = d h A A A A < . @ G ;.;.;.;.;.;.W . = X.X.X.X.X.X.= . W ;.;.;.;.;.;.G @ . = d d d d d d = . .               ",
"              . . 2 Z R X.X.X.X.{ % . . ^ ;.;.;.;.;.P . = X.X.X.X.X.X.: . P ;.;.;.;.;.( . . # n Z Z Z Z Z Z 2 . .               ",
"              . . 2 Z R X.X.X.X.X. .$ . ! ;.;.;.;.;.! . X g g g g g g o . ! ;.;.;.;.;.! . X Z Z Z Z Z Z Z Z 2 . .               ",
"              . . 2 Z R X.X.X.X.X.X.$ . ! ;.;.;.;.;.*.@ . . . . . . . . @ =.;.;.;.;.;.! . # Z Z Z Z Z Z Z Z 2 . .               ",
"              . . 2 Z v } X.E ] X.X.$ . ! ;.;.;.;.;.;.W . o s s s s o . W ;.;.;.;.;.;.! . # Z Z n c Z N h Z 2 . .               ",
"              . . 2 h . 2  .. O X.X.$ . ! ;.;.;.;.;.;.! . $ X.X.X.X.$ . ! ;.;.;.;.;.;.! . X Z Z X . Z = . h 2 . .               ",
"              . . 2 d . = { . . X.X.$ . J ! ! ! ! ! ! J . # D D D D # . J ! ! ! ! ! ! J . # Z Z . . n $ . d 2 . .               ",
"              . . 2 d . : { . . X.X.$ . . . . . . . . . . . . . . . . . . . . . . . . . . X Z Z . . N $ . d 2 . .               ",
"              . . 2 N = B X.6 f X.X.$ . . . . . . . . . . . . O O . . . . . . . . . . . . $ Z Z 3 > Z y % N 2 . .               ",
"              . . 2 Z R X.X.X.X.X.X.$ .                   . . U U . .                   . X Z Z Z Z Z Z Z Z 2 . .               ",
"                . $ C Y  .X.X.X.X.E . .                   . O U U o .                   . . c Z Z Z Z Z Z N $ .                 ",
"                . . . . . . . . . . . .                   . O U U . .                   . . . . . . . . . . . .                 ",
"                  . . . . . . . . . .                     . . U U o .                     . . . . . . . . . .                   ",
"                                                          . O U U O .                                                           ",
"                                                          . . U U . .                                                           ",
"                                                          . . U U . .                                                           ",
"                                                          . O U U O .                                                           ",
"                                                          . o U U . .                                                           ",
"                                                          . . U U O .                                                           ",
"                                                          . O U U O .                                                           ",
"                                                          . . U U . .                                                           ",
"                                                          . . U U . .                                                           ",
"                                                          . O U U O .                                                           ",
"                                                          . O U U . .                                                           ",
"                                                          . . I I o .                                                           ",
"                                                          . . . . . .                                                           ",
"                                                          . . . . . .                                                           "
};
