/* XPM */
static char *_eab33737ca34e3ed4638329e59c53deAvhA8LMY8LsPzzec[] = {
/* columns rows colors chars-per-pixel */
"64 64 113 2 ",
"   c None",
".  c #000000",
"X  c #060D05",
"o  c #090C04",
"O  c #0B0C0C",
"+  c #071207",
"@  c #0B1106",
"#  c #071008",
"$  c #09150A",
"%  c #0B1B0C",
"&  c #111205",
"*  c #111909",
"=  c #0D210E",
"-  c #1A240E",
";  c #19280E",
":  c #0F2410",
">  c #0F2910",
",  c #102511",
"<  c #132B14",
"1  c #1E2D10",
"2  c #133214",
"3  c #163817",
"4  c #173618",
"5  c #173E19",
"6  c #1B3E1D",
"7  c #232408",
"8  c #2D2E0C",
"9  c #36360C",
"0  c #222F12",
"q  c #273615",
"w  c #223813",
"e  c #2A3B16",
"r  c #2D3F18",
"t  c #1E441F",
"y  c #1B4A1E",
"u  c #2F4319",
"i  c #2D4A19",
"p  c #354A1C",
"a  c #384F1E",
"s  c #1F4720",
"d  c #1E5321",
"f  c #214F23",
"g  c #235325",
"h  c #225B25",
"j  c #265728",
"k  c #275A29",
"l  c #295D2B",
"z  c #3C5521",
"x  c #3B5820",
"c  c #246327",
"v  c #256529",
"b  c #2C662E",
"n  c #26682A",
"m  c #2B6A2E",
"M  c #3D6422",
"N  c #2A732E",
"B  c #2E6A30",
"V  c #306E32",
"C  c #2D7631",
"Z  c #2E7D32",
"A  c #327334",
"S  c #327C35",
"D  c #377E39",
"F  c #515717",
"G  c #415C23",
"H  c #446024",
"J  c #496627",
"K  c #4D6C29",
"L  c #52742C",
"P  c #587B2F",
"I  c #525356",
"U  c #5E5F62",
"Y  c #308134",
"T  c #3A853D",
"R  c #368B3A",
"E  c #3C8A3F",
"W  c #5D8231",
"Q  c #558B30",
"!  c #648C35",
"~  c #669037",
"^  c #689237",
"/  c #649B37",
"(  c #6A9539",
")  c #6E9A3B",
"_  c #6FA63C",
"`  c #76A63F",
"'  c #3E8E41",
"]  c #3D9441",
"[  c #419644",
"{  c #429946",
"}  c #459E48",
"|  c #47A44B",
" . c #48A64C",
".. c #4AAB4E",
"X. c #4CAE50",
"o. c #4CAF50",
"O. c #4CAF50",
"+. c #7AAB41",
"@. c #7DAF42",
"#. c #81811E",
"$. c #83831E",
"%. c #8A891F",
"&. c #8A9426",
"*. c #949322",
"=. c #9E9D24",
"-. c #9AA62B",
";. c #CDDC39",
":. c #82B645",
">. c #83B846",
",. c #86BC47",
"<. c #88BE48",
"1. c #89C149",
"2. c #8BC34A",
/* pixels */
"                                                          . . . . . .                                                           ",
"                                                          . . . . . .                                                           ",
"                                                          . O I I . .                                                           ",
"                                                          . . U U o .                                                           ",
"                                                          . . U U . .                                                           ",
"                                                          . O U U O .                                                           ",
"                                                          . o U U O .                                                           ",
"                                                          . . U U . .                                                           ",
"                                                          . . U U . .                                                           ",
"                                                          . O U U O .                                                           ",
"                                                          . O U U . .                                                           ",
"                                                          . o U U O .                                                           ",
"                                                          . O U U O .                                                           ",
"                                                          . . U U . .                                                           ",
"                  . . . . . . . . . .                     . O U U . .                     . . . . . . . . . .                   ",
"                . . . . . . . . . . . .                   . . U U O .                   . . . . . . . . . . . .                 ",
"                . $ N Z Z Z Z Z Z c . .                   . . U U . .                   . . E o.o.o.o...Y N + .                 ",
"              . . 2 Z Z Z Z Z Z Z Z # .                   . o U U o .                   . $ o.o.o.o.O.O.R Z 2 . .               ",
"              . . 2 N = y Z > 3 Z Z # . . . . . . . . . . . . O O . . . . . . . . . . . . $ o.o.f 6 O.B = N 2 . .               ",
"              . . 2 d . $ N . . Z Z X . . . . . . . . . . . . . . . . . . . . . . . . . . $ o.o.. . } = . d 2 . .               ",
"              . . 2 d . $ N . . Z Z X . J ! ! ! ! ! ! J . X D D D D X . J ! ! ! ! ! ! J . $ o.o.. . { : . d 2 . .               ",
"              . . 2 h . = N . X Z Z # . ! 2.2.2.2.2.2.! . # o.o.o.o.$ . ! 2.2.2.2.2.2.! . $ o.o.# .  .< . h 2 . .               ",
"              . . 2 Y d N Z c n Z Z # . ! 2.2.2.2.2.<.! . X f t s s X . W 2.2.2.2.2.2.! . $ o.o.[ E o.} v Z 2 . .               ",
"              . . 2 Z Z Z Z Z Z Z Z X . ! 2.2.2.2.2.>.@ . . . . . . . . @ >.2.2.2.2.2.! . $ o.o.o.o.o.o.R Z 2 . .               ",
"              . . 2 Z Z Z Z Z Z Z Z X . ! 2.2.2.2.2.! . # g g g g g g X . ! 2.2.2.2.2.! . # ..o.o.o.o.o.R Z 2 . .               ",
"              . . 2 Z Z Z Z Z Z m + . . ^ 2.2.2.2.2.W . % o.o.o.o.o.o.= . P 2.2.2.2.2.^ . . % { o.o.o.o.R Z 2 . .               ",
"              . . = d d d d d d = . @ G 2.2.2.2.2.2.P . : o.o.o.o.o.o.: . W 2.2.2.2.2.2.G @ . < A A A A h d = . .               ",
"              . . . . . . . . . . . ( 2.2.2.:.^ ! ! G . $ D D D D D D $ . G ! ! ^ :.2.2.2.( . . . . . . . . . . .               ",
"              . . o - - - - - - . . +.2.2.H . . . . . . . . . . . . . . . . . . . . H 2.2.+.. . - - - - * * X . .               ",
"              . . a 2.2.2.2.2.2.. . +.2.W . . X $ $ $ $ $ $ $ $ $ $ $ $ $ $ # # X . . W 2.+.. . 2.2.2.2./ Q w . .               ",
"              . . a 2.2.2.2.2.2.. . +.2.p . t o.O.O.O.O.o.o.o.o.o.o.O.O.O.O.O.R Z 2 . p 2.+.. . 2.2.2.2./ Q w . .               ",
"              . . a 2.2.2.2.2.2.. . +.2.q . b O.O.O.O.O.o.o.o.o.o.o.O.O.O.O.O.] Z y . q 2.+.. . 2.2.2.2./ Q w . .               ",
"              . . a 2.2.2.2.2.2.. . +.2.q . B o.O.O.O.O.O.O.O.< . . . . . . X C Z y . q 2.+.. . 2.2.2.2./ Q q . .               ",
"              . . a 2.2.2.2.2.2.. . +.2.q . b o.O.O.O.O.O.O. .. . . . . . . . f Z y . q 2.+.. . 2.2.2.2./ Q w . .               ",
"              . . o * * * * * * . . +.2.q . b o.{ , D O.O.O.| . . #.%.%.%.8 . f Z y . q 2.+.. . * * * * $ @ . . .               ",
"              . . . . . . . . . . . +.2.q . B o.l . 6 O.O.O.| . . *.=.=.=.9 . d Z y . q 2.+.. . . . . . . . . . .               ",
"              . . e ! ! ! ! ! ! . . +.2.q . V o.A . f o.o.o.... . $.=.=.=.7 . j Z y . q 2.+.. . ! ! ! ! L M ; . .               ",
"              . . a 2.2.2.2.2.2.. . +.2.q . b ....T ..o.o.o.o.< . @ 9 9 7 . . S Z y . q 2.+.. . 2.2.2.2._ Q w . .               ",
"              . . a 2.2.2.2.2.2.. . +.2.q . b o.| k { o.o.o...[ @ . . . . X l E Z y . q 2.+.. . 2.2.2.2._ Q w . .               ",
"              . . a 2.2.2.2.2.2.. . +.2.q . m o.b . t o.o.o.o.o.| A l l b { O.E Z y . q 2.+.. . 2.2.2.2._ Q w . .               ",
"              . . 1 J J J J J J . . +.2.q . m o.b . t o.o.o.o.o.O...A B { ..O.E Y y . q 2.+.. . J J J J x i * . .               ",
"              . . . . . . . . . . . +.2.q . b o. .k { o.o.o.o.o.{ $ . . . m O.[ Y y . q 2.+.. . . . . . . . . . .               ",
"              . . * u u u u u u . . +.2.q . B o.o.T ..o.o.o.o.o.4 . & 8 . . | ] Y y . q 2.+.. . u u u u w 1 @ . .               ",
"              . . a 2.2.2.2.2.2.. . +.2.q . b o.V . f o.o.o.o.o.X . -.;.- . C E Z y . q 2.+.. . 2.2.2.2./ Q w . .               ",
"              . . a 2.2.2.2.2.2.. . +.2.q . m o.l . 6 o.o.o.o.o.% . F &.o . R ] Z y . q 2.+.. . 2.2.2.2./ Q w . .               ",
"              . . a 2.2.2.2.2.2.. . +.2.q . B o.] < D o.o.o.o.o.B . . . . : O.] Z y . q 2.+.. . 2.2.2.2./ Q w . .               ",
"              . . a 2.2.2.2.2.2.. . +.2.q . b o.o.o.o.o.o.o.o.o.o.V : $ s | X.E Z y . q 2.+.. . 2.2.2.2./ Q w . .               ",
"              . . a 2.2.2.2.2.2.. . +.2.a . 4  .o.o.o.o.o.o.o.o.o.o.o.o.X.X.O.R C = . a 2.+.. . 2.2.2.2./ Q w . .               ",
"              . . a 2.2.2.2.2.2.. . +.2.^ . . . . . . . . . . . . . . . . . . . . . . ^ 2.+.. . 2.2.2.2./ Q w . .               ",
"              . . . o o o o o o . . +.2.2.P @ . . . . . . . . . . . . . . . . . . @ P 2.2.+.. . o o X o . o . . .               ",
"              . . . . . . . . . . . ! 2.2.2.2.@.+.+.+.+.+.+.+.+.+.+.+.+.+.+.+.+.@.2.2.2.2.! . . . . . . . . . . .               ",
"              . . < v v v v v v < . . e ,.2.2.2.2.2.2.2.2.2.2.2.2.2.2.2.2.2.2.2.2.2.2.,.e . . 6 ' ' ' ' N v > . .               ",
"              . . 2 Z Z Z Z Z Z N = . . ! 2.2.2.<.K r e z ` 2.2.2.2.` z e r K ,.2.2.2.! . . <  .o.o.o.o.R Z 2 . .               ",
"              . . 2 Z Z Z Z Z Z Z Z # . ! 2.2.<.0 . . . . . ) 2.2.) . . . . . 0 2.2.2.! . $ O.O.o.o.o.o.R Z 2 . .               ",
"              . . 2 Y Z Z Y Z Z Z Z # . ! 2.2.! . X j b , . q 2.2.q . < b k X . W 2.2.! . $ o.o.o.o.o.o.R Z 2 . .               ",
"              . . 2 C y n Z d h Z Z # . ! 2.2.G . 6 ..O.E . @ 2.2.@ . T O.X.6 . H 2.2.! . $ o.o.T A o.] g C 2 . .               ",
"              . . 2 h . % N . X Z Z # . ! 2.2.G . f o.o.[ . o 2.2.o . ' o.o.f . G 2.2.! . $ o.o.X . | < . h 2 . .               ",
"              . . 2 d . $ N . . Z Z X . z L L q . < b m g . . L L . . j m b < . q L L z . $ o.o.. . { : . d 2 . .               ",
"              . . 2 d . $ N . . Z Z X . . . . . . . . . . . . . . . . . . . . . . . . . . $ o.o.. . } : . d 2 . .               ",
"              . . 2 C 2 h Z 5 y Z Z # . . . . . . . . . . . . . . . . . . . . . . . . . . $ o.o.B j O.D 3 C 2 . .               ",
"              . . 2 Z Y Z Z Z Z Z Z + .                                                 . $ o.o.o.X.X.X.R Y 2 . .               ",
"                . + c m m N n m m d . .                                                 . . A { { { { { m c + .                 ",
"                . . . . . . . . . . . .                                                 . . . . . . . . . . . .                 ",
"                  . . . . . . . . . .                                                     . . . . . . . . . .                   "
};
